<svg id="Layer_1" data-name="Layer 1" xmlns="http://www.w3.org/2000/svg" xmlns:xlink="http://www.w3.org/1999/xlink" viewBox="0 0 1301 701">
  <defs>
    <style>
          .cls1 {
            fill: none;
            stroke: #35c1d5;
            stroke-miterlimit: 10;
            stroke-width: 1;
            stroke-dasharray: 1000px;
            stroke-dashoffset: 1000px;
            animation: draw 1s forwards ease-in-out;
          }

          .cls2 {
            fill: transparent;
            stroke: #f29f99;
            stroke-width: 1;
            stroke-dasharray: 800px;
            stroke-dashoffset: 800px;
            animation: draw 1s forwards 1s ease-in-out,
              fill 1s forwards 2s ease-in-out;
          }
          <!-- @keyframes draw {
            to {
              stroke-dashoffset: 0;
            }
          }
          @keyframes fill {
            to {
              fill: #f29f99;
            }
          } -->
        </style>
    <clipPath id="clip-path" transform="translate(0.5 0.5)">
      <rect class="cls1" width="1300" height="700"/>
    </clipPath>
  </defs>
  <title>logo-clipped</title>
  <g class="cls2">
    <g>
      <rect class="cls-3" x="0.5" y="0.5" width="1300" height="700"/>
      <rect class="cls-4" x="496.76" y="188.43" width="219.23" height="219.23"/>
      <path class="cls-5" d="M782.41,377.31a119.51,119.51,0,0,1-75.17,109.57A118.09,118.09,0,0,1,617,485.67a116.75,116.75,0,0,1-62.26-64,114.8,114.8,0,0,1,26.54-125,113.16,113.16,0,0,1,80.6-32.08,111.82,111.82,0,0,1,78.75,33.93,110.55,110.55,0,0,1,31.31,78.75Zm-10.5,0a109.21,109.21,0,0,0-33.16-76.89,107.94,107.94,0,0,0-76.9-30.54,106.55,106.55,0,0,0-75,32.4,105.28,105.28,0,0,0-29.77,75,103.93,103.93,0,0,0,31.63,73.18,102.66,102.66,0,0,0,73.17,29,101.32,101.32,0,0,0,71.33-30.86,100,100,0,0,0,28.23-71.32Z" transform="translate(0.5 0.5)"/>
    </g>
  </g>
</svg>